<svg width="80" height="81" viewBox="0 0 80 81" fill="none" xmlns="http://www.w3.org/2000/svg">
<g clip-path="url(#clip0_149_2)">
<path opacity="0.1" fill-rule="evenodd" clip-rule="evenodd" d="M40 15.5C33.3696 15.5 27.0107 18.1339 22.3223 22.8223C17.6339 27.5107 15 33.8696 15 40.5C15 47.1304 17.6339 53.4893 22.3223 58.1777C27.0107 62.8661 33.3696 65.5 40 65.5C46.6304 65.5 52.9893 62.8661 57.6777 58.1777C62.3661 53.4893 65 47.1304 65 40.5C65 33.8696 62.3661 27.5107 57.6777 22.8223C52.9893 18.1339 46.6304 15.5 40 15.5ZM5 40.5C5 21.17 20.67 5.5 40 5.5C59.33 5.5 75 21.17 75 40.5C75 59.83 59.33 75.5 40 75.5C20.67 75.5 5 59.83 5 40.5Z" fill="white"/>
<path fill-rule="evenodd" clip-rule="evenodd" d="M40.0001 15.5C33.5546 15.4855 27.3554 17.975 22.7101 22.4433C21.7477 23.3332 20.4743 23.8095 19.1642 23.7698C17.854 23.7301 16.6119 23.1775 15.7051 22.231C14.7984 21.2845 14.2996 20.0197 14.3161 18.7091C14.3326 17.3984 14.8631 16.1467 15.7934 15.2233C22.2998 8.97152 30.9769 5.48612 40.0001 5.5C41.3262 5.5 42.598 6.02678 43.5356 6.96446C44.4733 7.90214 45.0001 9.17391 45.0001 10.5C45.0001 11.8261 44.4733 13.0978 43.5356 14.0355C42.598 14.9732 41.3262 15.5 40.0001 15.5Z" fill="white"/>
</g>
<defs>
<clipPath id="clip0_149_2">
<rect width="80" height="80" fill="white" transform="translate(0 0.5)"/>
</clipPath>
</defs>
</svg>
